<svg xmlns="http://www.w3.org/2000/svg" viewBox="0 0 83 87" width="83" height="87">
	<style>
		tspan { white-space:pre }
		.shp0 { fill: #3c3c3c } 
	</style>
	<g id="what we do">
		<path id="Shape 2" class="shp0" d="M79.96 1.99L68.03 1.99C66.91 1.99 66.01 2.89 66.01 4.01L66.01 8.18L17.86 8.18L17.86 4.01C17.86 2.89 16.96 1.99 15.84 1.99L4.02 1.99C2.9 1.99 2 2.89 2 4.01L2 16.28C2 17.4 2.9 18.3 4.02 18.3L15.95 18.3C17.07 18.3 17.97 17.4 17.97 16.28L17.97 12.11L40.13 12.11C39.91 17.06 27.87 40.35 20.22 54.08C19.77 54.87 20 55.88 20.67 56.55C27.53 62.4 29.22 68.14 29.67 71.07L27.08 71.07C25.96 71.07 25.06 71.97 25.06 73.09L25.06 82.99C25.06 84.12 25.96 85.02 27.08 85.02L57.01 85.02C58.13 85.02 59.03 84.12 59.03 82.99L59.03 73.09C59.03 71.97 58.13 71.07 57.01 71.07L54.42 71.07C54.87 68.14 56.56 62.4 63.42 56.55C64.09 55.99 64.32 54.87 63.87 54.08C56.22 40.35 44.18 16.95 43.96 12.11L66.01 12.11L66.01 16.28C66.01 17.4 66.91 18.3 68.03 18.3L79.96 18.3C81.08 18.3 81.98 17.4 81.98 16.28L81.98 4.01C81.98 2.89 81.08 1.99 79.96 1.99ZM13.92 14.25L5.94 14.25L5.94 5.93L13.92 5.93L13.92 14.25ZM42.05 47.22C43.51 47.22 44.63 48.34 44.63 49.8C44.63 51.27 43.51 52.39 42.05 52.39C40.58 52.39 39.46 51.27 39.46 49.8C39.46 48.45 40.7 47.22 42.05 47.22ZM55.1 80.86L29.11 80.86L29.11 74.89L31.81 74.89L52.4 74.89L55.1 74.89L55.1 80.86ZM50.48 70.95L33.61 70.95C33.16 67.69 31.47 61.17 24.38 54.53C27.08 49.58 35.18 34.73 40.02 23.7L40.02 43.62C37.43 44.4 35.52 46.88 35.52 49.8C35.52 53.4 38.45 56.33 42.05 56.33C45.65 56.33 48.57 53.4 48.57 49.8C48.57 46.88 46.66 44.52 44.07 43.62L44.07 23.59C49.02 34.62 57.01 49.47 59.71 54.53C52.62 61.17 50.93 67.69 50.48 70.95ZM78.04 14.25L70.06 14.25L70.06 10.54C70.06 10.43 70.06 10.31 70.06 10.2C70.06 10.09 70.06 9.98 70.06 9.86L70.06 6.04L78.04 6.04L78.04 14.25Z" />
	</g>
</svg>