<svg xmlns="http://www.w3.org/2000/svg" viewBox="0 0 83 79" width="83" height="79">
	<style>
		tspan { white-space:pre }
		.shp0 { fill: #3c3c3c } 
	</style>
	<g id="what we do">
		<path id="Shape 3" class="shp0" d="M78.92 78L4.08 78C2.93 78 2 77.06 2 75.9L2 14.98C2 13.82 2.93 12.88 4.08 12.88L78.92 12.88C80.07 12.88 81 13.82 81 14.98L81 75.9C81 77.06 80.07 78 78.92 78ZM6.16 73.8L76.84 73.8L76.84 17.08L6.16 17.08L6.16 73.8ZM78.92 17.08L4.08 17.08C2.93 17.08 2 16.14 2 14.98L2 4.09C2 2.93 2.93 1.99 4.08 1.99L78.92 1.99C80.07 1.99 81 2.93 81 4.09L81 14.98C81 16.14 80.07 17.08 78.92 17.08ZM6.16 12.88L76.84 12.88L76.84 6.19L6.16 6.19L6.16 12.88ZM11.18 8.07C11.98 8.07 12.63 8.73 12.63 9.54C12.63 10.35 11.98 11.01 11.18 11.01C10.38 11.01 9.73 10.35 9.73 9.54C9.73 8.73 10.38 8.07 11.18 8.07ZM15.53 8.07C16.33 8.07 16.98 8.73 16.98 9.54C16.98 10.35 16.33 11 15.53 11C14.73 11 14.08 10.35 14.08 9.54C14.08 8.73 14.73 8.07 15.53 8.07ZM19.88 8.07C20.68 8.07 21.34 8.73 21.34 9.54C21.34 10.35 20.68 11.01 19.88 11.01C19.08 11.01 18.43 10.35 18.43 9.54C18.43 8.73 19.08 8.07 19.88 8.07ZM31.04 51.18C30.58 51.18 30.11 51 29.76 50.64L24.1 44.93C23.39 44.21 23.39 43.05 24.1 42.33L29.75 36.62C30.46 35.91 31.61 35.91 32.32 36.62C33.03 37.34 33.03 38.5 32.32 39.22L27.96 43.63L32.33 48.04C33.04 48.76 33.04 49.92 32.33 50.64C31.98 51 31.51 51.18 31.04 51.18ZM51.96 51.18C51.5 51.18 51.03 51 50.68 50.64C49.97 49.92 49.97 48.76 50.68 48.04L55.04 43.64L50.67 39.22C49.96 38.5 49.96 37.34 50.67 36.62C51.38 35.91 52.53 35.91 53.24 36.62L58.9 42.34C59.24 42.68 59.43 43.15 59.43 43.64C59.43 44.12 59.24 44.59 58.9 44.93L53.25 50.64C52.89 51 52.43 51.18 51.96 51.18ZM38.89 55.42C38.74 55.42 38.59 55.4 38.44 55.36C37.47 55.11 36.88 54.11 37.13 53.13L41.75 34.85C42 33.86 43 33.27 43.96 33.52C44.94 33.77 45.53 34.77 45.28 35.76L40.65 54.04C40.44 54.87 39.7 55.42 38.89 55.42Z" />
	</g>
</svg>