<svg xmlns="http://www.w3.org/2000/svg" viewBox="0 0 82 94" width="82" height="94">
	<style>
		tspan { white-space:pre }
		.shp0 { fill: #3c3c3c } 
	</style>
	<g id="what we do">
		<path id="Shape 4" class="shp0" d="M23.76 39.11C23.35 39.11 22.95 38.96 22.65 38.66L19.55 35.58C18.94 34.97 18.94 33.98 19.55 33.38C20.16 32.77 21.15 32.77 21.77 33.38L23.76 35.35L28.84 30.3C29.46 29.69 30.45 29.69 31.06 30.3C31.67 30.91 31.67 31.89 31.06 32.5L24.87 38.66C24.56 38.96 24.16 39.11 23.76 39.11ZM56.31 36.04L37.64 36.04C36.77 36.04 36.07 35.34 36.07 34.48C36.07 33.62 36.77 32.92 37.64 32.92L56.31 32.92C57.18 32.92 57.88 33.62 57.88 34.48C57.88 35.34 57.18 36.04 56.31 36.04ZM23.76 65.79C23.35 65.79 22.95 65.64 22.65 65.34L19.55 62.26C18.94 61.65 18.94 60.66 19.55 60.06C20.16 59.45 21.15 59.45 21.77 60.06L23.76 62.03L28.84 56.98C29.46 56.37 30.45 56.37 31.06 56.98C31.67 57.59 31.67 58.58 31.06 59.18L24.87 65.34C24.56 65.64 24.16 65.79 23.76 65.79ZM56.31 62.72L37.64 62.72C36.77 62.72 36.07 62.02 36.07 61.16C36.07 60.3 36.77 59.6 37.64 59.6L56.31 59.6C57.18 59.6 57.88 60.3 57.88 61.16C57.88 62.02 57.18 62.72 56.31 62.72ZM23.76 79.14C23.35 79.14 22.95 78.98 22.65 78.68L19.55 75.6C18.94 74.99 18.94 74.01 19.55 73.4C20.16 72.79 21.15 72.79 21.77 73.4L23.76 75.37L28.84 70.32C29.46 69.71 30.45 69.71 31.06 70.32C31.68 70.93 31.67 71.92 31.06 72.53L24.87 78.68C24.56 78.98 24.16 79.14 23.76 79.14ZM56.31 76.06L37.64 76.06C36.77 76.06 36.07 75.36 36.07 74.5C36.07 73.64 36.77 72.94 37.64 72.94L56.31 72.94C57.18 72.94 57.88 73.64 57.88 74.5C57.88 75.36 57.18 76.06 56.31 76.06ZM23.76 52.45C23.35 52.45 22.95 52.3 22.65 52L19.55 48.92C18.94 48.31 18.94 47.32 19.55 46.71C20.16 46.11 21.15 46.11 21.77 46.71L23.76 48.69L28.84 43.64C29.46 43.03 30.45 43.03 31.06 43.64C31.68 44.25 31.67 45.23 31.06 45.84L24.87 52C24.56 52.3 24.16 52.45 23.76 52.45ZM56.31 49.38L37.64 49.38C36.77 49.38 36.07 48.68 36.07 47.82C36.07 46.96 36.77 46.26 37.64 46.26L56.31 46.26C57.18 46.26 57.88 46.96 57.88 47.82C57.88 48.68 57.18 49.38 56.31 49.38ZM78.89 12.4L60.42 12.4C60.2 9.22 57.53 6.72 54.28 6.72L48.3 6.72C48.25 3.57 45.67 1.01 42.48 1.01C39.3 1.01 36.7 3.57 36.67 6.72L30.68 6.72C27.44 6.72 24.77 9.22 24.55 12.4L4.08 12.4C2.92 12.4 1.99 13.34 1.99 14.48L1.99 89.92C1.99 91.07 2.92 92 4.08 92L78.89 92C80.05 92 80.98 91.07 80.98 89.92L80.98 14.48C80.98 13.34 80.05 12.4 78.89 12.4ZM28.71 12.84C28.71 11.76 29.59 10.88 30.68 10.88L37.22 10.88C39.23 10.88 40.86 9.26 40.86 7.27L40.86 6.79C40.86 5.9 41.59 5.17 42.48 5.17C43.38 5.17 44.11 5.9 44.11 6.79L44.11 7.27C44.11 9.26 45.74 10.88 47.74 10.88L54.28 10.88C55.38 10.88 56.26 11.76 56.26 12.84L56.26 17.1L28.71 17.1L28.71 12.84L28.71 12.84ZM76.8 87.84L6.17 87.84L6.17 16.56L24.53 16.56L24.53 19.18C24.53 20.33 25.46 21.26 26.62 21.26L58.35 21.26C59.51 21.26 60.44 20.33 60.44 19.18L60.44 16.56L76.79 16.56L76.79 87.84L76.8 87.84ZM42.48 11.14C43.59 11.14 44.49 12.03 44.49 13.14C44.49 14.24 43.59 15.13 42.48 15.13C41.37 15.13 40.47 14.24 40.47 13.14C40.47 12.03 41.37 11.14 42.48 11.14Z" />
	</g>
</svg>